<mxfile host="65bd71144e">
    <diagram id="WDZFgPbYYEUMl3GF2dzZ" name="Page-1">
        <mxGraphModel dx="831" dy="693" grid="1" gridSize="10" guides="1" tooltips="1" connect="1" arrows="1" fold="1" page="1" pageScale="1" pageWidth="850" pageHeight="1100" math="0" shadow="0">
            <root>
                <mxCell id="0"/>
                <mxCell id="1" parent="0"/>
                <mxCell id="2" value="" style="swimlane;startSize=0;" vertex="1" parent="1">
                    <mxGeometry x="110" y="880" width="380" height="100" as="geometry">
                        <mxRectangle x="140" y="230" width="50" height="40" as="alternateBounds"/>
                    </mxGeometry>
                </mxCell>
                <mxCell id="5" value="music" style="shape=cylinder;whiteSpace=wrap;html=1;boundedLbl=1;backgroundOutline=1;" vertex="1" parent="2">
                    <mxGeometry x="255" y="10" width="60" height="80" as="geometry"/>
                </mxCell>
                <mxCell id="6" value="Capa de datos" style="text;html=1;align=center;verticalAlign=middle;resizable=0;points=[];autosize=1;strokeColor=none;fillColor=none;fontStyle=1;fontSize=17;" vertex="1" parent="2">
                    <mxGeometry x="35" y="35" width="130" height="30" as="geometry"/>
                </mxCell>
                <mxCell id="31" style="edgeStyle=none;html=1;shape=flexArrow;fillColor=light-dark(#FFFFFF,#FF8000);strokeColor=light-dark(#000000,#FFB366);" edge="1" parent="2">
                    <mxGeometry relative="1" as="geometry">
                        <mxPoint x="250" y="20" as="targetPoint"/>
                        <mxPoint x="250" y="-61" as="sourcePoint"/>
                    </mxGeometry>
                </mxCell>
                <mxCell id="7" value="" style="swimlane;startSize=0;dashed=1;dashPattern=8 8;" vertex="1" parent="1">
                    <mxGeometry x="110" y="700" width="380" height="140" as="geometry"/>
                </mxCell>
                <mxCell id="11" value="Persistencia" style="text;html=1;align=center;verticalAlign=middle;resizable=0;points=[];autosize=1;strokeColor=none;fillColor=none;fontStyle=1;fontSize=17;" vertex="1" parent="7">
                    <mxGeometry x="40" y="55" width="110" height="30" as="geometry"/>
                </mxCell>
                <mxCell id="23" value="model" style="shape=folder;fontStyle=1;tabWidth=110;tabHeight=30;tabPosition=left;html=1;boundedLbl=1;labelInHeader=1;container=1;collapsible=0;recursiveResize=0;whiteSpace=wrap;" vertex="1" parent="7">
                    <mxGeometry x="200" y="20" width="150" height="100" as="geometry"/>
                </mxCell>
                <mxCell id="24" value="DAOs" style="html=1;whiteSpace=wrap;" vertex="1" parent="23">
                    <mxGeometry width="60" height="30" relative="1" as="geometry">
                        <mxPoint x="10" y="50" as="offset"/>
                    </mxGeometry>
                </mxCell>
                <mxCell id="25" value="Modelos" style="html=1;whiteSpace=wrap;" vertex="1" parent="23">
                    <mxGeometry x="80" y="50" width="54.5" height="30" as="geometry"/>
                </mxCell>
                <mxCell id="12" value="" style="swimlane;startSize=0;dashed=1;dashPattern=8 8;" vertex="1" parent="1">
                    <mxGeometry x="110" y="510" width="510" height="140" as="geometry"/>
                </mxCell>
                <mxCell id="14" value="Controlador / Lógica de&lt;div&gt;Negocio&lt;/div&gt;" style="text;html=1;align=center;verticalAlign=middle;resizable=0;points=[];autosize=1;strokeColor=none;fillColor=none;fontStyle=1;fontSize=17;" vertex="1" parent="12">
                    <mxGeometry x="-5" y="45" width="200" height="50" as="geometry"/>
                </mxCell>
                <mxCell id="20" value="controller" style="shape=folder;fontStyle=1;tabWidth=110;tabHeight=30;tabPosition=left;html=1;boundedLbl=1;labelInHeader=1;container=1;collapsible=0;recursiveResize=0;whiteSpace=wrap;" vertex="1" parent="12">
                    <mxGeometry x="220" y="20" width="255" height="100" as="geometry"/>
                </mxCell>
                <mxCell id="21" value="JPlayer" style="html=1;whiteSpace=wrap;" vertex="1" parent="20">
                    <mxGeometry width="110" height="30" relative="1" as="geometry">
                        <mxPoint x="20" y="50" as="offset"/>
                    </mxGeometry>
                </mxCell>
                <mxCell id="22" value="VolumeAudioDevice" style="html=1;whiteSpace=wrap;" vertex="1" parent="20">
                    <mxGeometry x="135" y="50" width="110" height="30" as="geometry"/>
                </mxCell>
                <mxCell id="15" value="" style="swimlane;startSize=0;" vertex="1" parent="1">
                    <mxGeometry x="110" y="310" width="380" height="140" as="geometry"/>
                </mxCell>
                <mxCell id="17" value="Presentación" style="text;html=1;align=center;verticalAlign=middle;resizable=0;points=[];autosize=1;strokeColor=none;fillColor=none;fontStyle=1;fontSize=17;" vertex="1" parent="15">
                    <mxGeometry x="35" y="55" width="120" height="30" as="geometry"/>
                </mxCell>
                <mxCell id="18" value="ui" style="shape=folder;fontStyle=1;tabWidth=110;tabHeight=30;tabPosition=left;html=1;boundedLbl=1;labelInHeader=1;container=1;collapsible=0;recursiveResize=0;whiteSpace=wrap;" vertex="1" parent="15">
                    <mxGeometry x="220" y="20" width="150" height="100" as="geometry"/>
                </mxCell>
                <mxCell id="19" value="GUI.java" style="html=1;whiteSpace=wrap;" vertex="1" parent="18">
                    <mxGeometry width="110" height="30" relative="1" as="geometry">
                        <mxPoint x="20" y="50" as="offset"/>
                    </mxGeometry>
                </mxCell>
                <mxCell id="37" style="edgeStyle=none;html=1;shape=flexArrow;fillColor=#0050ef;strokeColor=#001DBC;exitX=0;exitY=0;exitDx=110;exitDy=0;exitPerimeter=0;" edge="1" parent="15">
                    <mxGeometry relative="1" as="geometry">
                        <mxPoint x="330" y="-80" as="targetPoint"/>
                        <mxPoint x="330" y="20" as="sourcePoint"/>
                    </mxGeometry>
                </mxCell>
                <mxCell id="26" style="edgeStyle=none;html=1;entryX=0;entryY=0;entryDx=55;entryDy=0;entryPerimeter=0;shape=flexArrow;fillColor=light-dark(#FFFFFF,#FF8000);strokeColor=light-dark(#000000,#FFB366);" edge="1" parent="1" target="18">
                    <mxGeometry relative="1" as="geometry">
                        <mxPoint x="300" y="240" as="targetPoint"/>
                        <mxPoint x="385" y="230" as="sourcePoint"/>
                    </mxGeometry>
                </mxCell>
                <mxCell id="27" value="&lt;font style=&quot;font-size: 16px;&quot;&gt;Solicitud&lt;/font&gt;" style="edgeLabel;html=1;align=center;verticalAlign=middle;resizable=0;points=[];" vertex="1" connectable="0" parent="26">
                    <mxGeometry x="-0.38" y="1" relative="1" as="geometry">
                        <mxPoint x="-46" as="offset"/>
                    </mxGeometry>
                </mxCell>
                <mxCell id="28" style="edgeStyle=none;html=1;shape=flexArrow;fillColor=light-dark(#FFFFFF,#FF8000);strokeColor=light-dark(#000000,#FFB366);entryX=0;entryY=0;entryDx=55;entryDy=0;entryPerimeter=0;" edge="1" parent="1" target="20">
                    <mxGeometry relative="1" as="geometry">
                        <mxPoint x="370" y="529" as="targetPoint"/>
                        <mxPoint x="385" y="434" as="sourcePoint"/>
                    </mxGeometry>
                </mxCell>
                <mxCell id="30" style="edgeStyle=none;html=1;shape=flexArrow;fillColor=light-dark(#FFFFFF,#FF8000);strokeColor=light-dark(#000000,#FFB366);" edge="1" parent="1">
                    <mxGeometry relative="1" as="geometry">
                        <mxPoint x="360" y="720" as="targetPoint"/>
                        <mxPoint x="360" y="630" as="sourcePoint"/>
                    </mxGeometry>
                </mxCell>
                <mxCell id="32" style="edgeStyle=none;html=1;shape=flexArrow;fillColor=#0050ef;strokeColor=#001DBC;" edge="1" parent="1">
                    <mxGeometry relative="1" as="geometry">
                        <mxPoint x="425.1" y="820" as="targetPoint"/>
                        <mxPoint x="425" y="890.98" as="sourcePoint"/>
                    </mxGeometry>
                </mxCell>
                <mxCell id="33" value="&lt;font style=&quot;font-size: 16px;&quot;&gt;Respuesta&lt;/font&gt;" style="text;html=1;align=center;verticalAlign=middle;resizable=0;points=[];autosize=1;strokeColor=none;fillColor=none;" vertex="1" parent="1">
                    <mxGeometry x="420" y="850" width="100" height="30" as="geometry"/>
                </mxCell>
                <mxCell id="34" style="edgeStyle=none;html=1;shape=flexArrow;fillColor=#0050ef;strokeColor=#001DBC;" edge="1" parent="1">
                    <mxGeometry relative="1" as="geometry">
                        <mxPoint x="420" y="630" as="targetPoint"/>
                        <mxPoint x="420" y="720.98" as="sourcePoint"/>
                    </mxGeometry>
                </mxCell>
                <mxCell id="35" style="edgeStyle=none;html=1;shape=flexArrow;fillColor=#0050ef;strokeColor=#001DBC;entryX=0.75;entryY=1;entryDx=0;entryDy=0;entryPerimeter=0;exitX=0;exitY=0;exitDx=110;exitDy=0;exitPerimeter=0;" edge="1" parent="1" source="20" target="18">
                    <mxGeometry relative="1" as="geometry">
                        <mxPoint x="440.1" y="460" as="targetPoint"/>
                        <mxPoint x="450" y="530" as="sourcePoint"/>
                    </mxGeometry>
                </mxCell>
            </root>
        </mxGraphModel>
    </diagram>
</mxfile>